<svg width="93" height="86" viewBox="0 0 93 86" fill="none" xmlns="http://www.w3.org/2000/svg">
<path d="M26.604 1.98148C24.4308 4.04605 23.7587 7.06783 23.6838 9.96182C23.6505 12.7278 24.1579 15.3874 25.1425 17.9671C25.7652 19.6276 26.7009 21.1409 27.7915 22.5344C29.8909 25.281 32.6157 27.4492 35.7386 28.9286C38.4281 30.2301 41.4494 30.6868 44.4165 30.6756C49.1873 30.6682 53.9936 29.2642 57.3249 25.6858C60.7203 21.8029 61.8926 16.7208 63.071 11.8434C63.5501 9.25072 64.2833 6.18713 67.3671 6.25177C68.1403 6.24697 68.9136 6.25085 69.6869 6.24704C71.7163 6.23745 73.7476 6.2149 75.7769 6.23263C77.7031 6.20859 78.7986 4.20972 77.3011 2.71225C76.3305 1.8726 74.2296 2.23798 70.0276 2.05529C67.3967 2.0514 63.8611 1.43244 61.6809 3.16898C60.0328 4.4755 59.7679 6.76178 59.403 8.68971C58.8541 11.5719 58.1998 14.3957 56.9309 17.0536C51.0132 29.8427 31.0761 24.6757 30.8687 10.6719C30.8509 8.38784 31.8203 6.22706 34.3684 6.27475C36.5952 6.53922 38.4888 7.83038 39.9327 9.4997C40.4793 10.206 40.9313 10.9835 41.3757 11.7566C42.0377 12.7776 43.4079 12.1811 43.294 11.0576C43.2415 10.5988 43.1415 10.1697 43.0064 9.72878C42.9827 9.65144 42.9591 9.57411 42.9347 9.49443C41.7912 5.89867 39.5616 2.76491 36.1725 1.00522C32.9904 -0.52466 29.3228 -0.391505 26.604 1.98148Z" fill="#FF6A29"/>
<path d="M49.3847 34.94C49.3847 36.63 50.7547 38.0001 52.4448 38.0001C54.1348 38.0001 55.5049 36.63 55.5049 34.94C55.5049 33.2499 54.1348 31.8799 52.4448 31.8799C50.7547 31.8799 49.3847 33.2499 49.3847 34.94Z" fill="#FF6A29"/>
<path d="M34.0378 34.94C34.0378 36.63 35.4078 38.0001 37.0979 38.0001C38.7879 38.0001 40.158 36.63 40.158 34.94C40.158 33.2499 38.7879 31.8799 37.0979 31.8799C35.4078 31.8799 34.0378 33.2499 34.0378 34.94Z" fill="#FF6A29"/>
<circle cx="6.96693" cy="57.6618" r="1.33217" fill="#BA400B"/>
<circle cx="10.9647" cy="57.6618" r="1.33217" fill="#BA400B"/>
<path d="M26.3648 51.3153C26.6499 51.6795 26.6959 51.8591 26.6959 52.3214C26.5568 53.195 26.1402 53.8883 25.4483 54.4393C25.0343 54.7228 24.6046 54.9628 24.149 55.174C23.1756 55.6317 23.0906 55.5817 22.5095 55.6317C22.0655 55.6317 21.8434 55.8538 21.8434 56.0758C21.8434 56.2978 21.8434 56.7419 22.6654 56.7913C23.6964 56.8922 24.6164 57.0647 25.393 57.8029C26.2203 58.8181 26.3795 59.9159 26.2884 61.1848C26.1024 62.2242 25.575 62.941 24.7555 63.5917C22.5512 65.073 17.9423 64.801 15.795 63.1205C11.9909 65.2558 2.6486 65.6998 1.6657 60.0705C1.59536 59.3812 1.64167 58.6883 2.07321 58.1284C2.57822 57.7526 2.93509 57.6723 3.55403 57.7619C3.91252 57.8615 4.06903 58.0344 4.2827 58.3322C4.50278 58.8882 4.55139 59.474 4.62295 60.0653C4.77521 60.7545 5.10897 61.0166 5.67079 61.3376C7.60917 62.1991 13.8871 62.5418 14.0057 59.5165C14.0815 58.3611 14.609 57.4692 15.9004 57.7691C16.7077 58.0827 16.8181 58.6906 16.8456 59.4783C16.8783 60.0852 16.9309 60.504 17.3231 60.981C18.5322 61.9535 23.8776 62.6405 23.5377 60.0641C23.3223 59.7077 23.2201 59.5847 22.8246 59.4529C22.6019 59.4372 22.379 59.4249 22.156 59.4147C21.1444 59.3449 20.3041 59.1658 19.5645 58.4341C18.8718 57.5891 18.6598 56.7649 18.7494 55.6834C19.0066 53.8381 20.6614 53.0677 22.2812 52.7754C23.3645 52.5754 23.967 52.2541 24.6711 51.4009C25.1684 50.8797 25.8106 50.887 26.3648 51.3153Z" fill="#BA400B"/>
<path d="M33.6235 51.0298C34.1782 51.3277 34.462 51.645 34.471 52.2638C34.49 53.2699 34.4988 54.2762 34.5143 55.2824C34.5358 56.7413 34.5554 58.2002 34.5277 59.6589C34.5105 61.0977 34.8843 62.1927 36.5779 61.727C37.0892 61.4714 37.2749 61.2274 37.4948 60.7082C37.5522 60.3741 37.5522 60.3741 37.5776 60.0269C37.7162 58.9662 38.1493 58.1895 38.9828 57.515C40.7081 56.3216 43.5068 56.5937 44.6987 58.3921C46.5674 62.3559 42.6832 66.0115 39.0421 63.7327C38.9349 63.676 38.8278 63.6193 38.7174 63.5608C38.5167 63.6339 38.5167 63.6339 38.3099 63.7646C36.9989 64.4087 35.8099 64.7143 34.3621 64.3122C33.4623 64.0047 32.7618 63.4888 32.299 62.6439C31.9552 61.872 31.9325 61.0371 31.912 60.207C31.8525 57.685 31.919 55.1605 31.9176 52.638C31.9391 51.4928 32.3417 50.8505 33.6235 51.0298ZM40.5512 59.4857C40.0019 60.1944 40.0526 61.2729 40.7549 61.8289C42.2011 62.3583 42.9056 60.929 42.385 59.6894C42.1569 59.3685 42.021 59.2942 41.64 59.1864C41.1872 59.1787 40.9399 59.254 40.5512 59.4857Z" fill="#BA400B"/>
<path d="M30.3774 57.9959C30.4684 58.2752 30.4916 58.4921 30.4931 58.785C30.4986 59.351 30.4983 59.9171 30.4973 60.483C30.497 60.8455 30.4994 61.2078 30.502 61.5702C30.507 63.396 30.4581 64.6846 29.6067 66.2801C28.8392 67.6063 27.5622 68.4088 26.1277 68.8776C25.4893 69.0327 24.8981 69.0824 24.3015 68.7841C23.9404 68.4591 23.7756 68.2801 23.652 67.8035C23.637 67.3675 23.6984 67.1807 23.9449 66.8229C24.3197 66.4962 24.6752 66.3713 25.1484 66.2244C26.0785 65.929 26.8576 65.4496 27.3224 64.5609C27.5908 63.9842 27.7252 63.4714 27.7321 62.8323C27.743 62.0194 27.7541 61.2065 27.763 60.3936C27.7705 59.7352 27.7809 59.0768 27.7886 58.4183C27.935 57.0694 29.7657 56.7302 30.3774 57.9959Z" fill="#BA400B"/>
<path d="M58.928 55.4048C59.7395 55.8106 60.3207 56.6323 61.0293 57.194C64.2141 59.7739 62.8026 64.1909 58.8075 64.3807C58.2978 64.3933 57.7889 64.3873 57.2793 64.3755C56.2891 64.3555 55.2601 64.5383 54.4786 63.8161C54.0379 63.2968 54.2483 62.4502 54.6682 61.9823C55.3054 61.6283 56.0695 61.7156 56.7723 61.7223C56.9777 61.7248 57.1831 61.7276 57.3885 61.731C58.5155 61.7815 60.1257 61.8393 60.1506 60.3968C59.888 59.6091 59.1909 59.1155 58.5651 58.614C57.8418 58.0266 57.2439 57.4863 57.0942 56.5255C57.1534 56.0741 57.2224 55.8841 57.5527 55.5704C58.0409 55.253 58.3658 55.2853 58.928 55.4048Z" fill="#BA400B"/>
<path d="M53.8762 58.563C53.9063 59.5021 53.9249 60.4414 53.9432 61.3808C53.9792 63.5021 53.9845 65.5301 52.5096 67.225C51.3369 68.3153 48.4092 70.2389 47.4157 68.04C47.3465 67.5942 47.3798 67.3961 47.5876 66.9958C47.9587 66.5546 48.3941 66.3768 48.9248 66.1744C49.8629 65.7865 50.518 65.295 50.9815 64.3724C51.2173 63.726 51.2153 63.1133 51.2167 62.43C51.2271 61.4451 51.2308 60.4603 51.2421 59.4755C51.2422 58.8422 51.2193 58.1954 51.5927 57.6485C52.5119 56.8361 53.8387 57.2701 53.8762 58.563Z" fill="#BA400B"/>
<path d="M70.0182 61.32V63.8012H69.5482C68.579 63.8012 67.8321 63.6264 67.3074 63.2766C66.7827 62.9195 66.4074 62.4422 66.1815 61.8446C65.9556 61.2471 65.8208 60.573 65.7771 59.8224C65.7406 59.0719 65.7297 58.2921 65.7443 57.4833C65.7443 57.425 65.7443 57.3667 65.7443 57.3084L65.788 52.7393C65.8244 52.2001 66.0285 51.8175 66.4001 51.5916C66.7791 51.3657 67.1507 51.3584 67.5151 51.5697C67.8867 51.781 68.0835 52.2766 68.1053 53.0563L68.0179 59.5273C68.0543 60.2269 68.2438 60.7042 68.5863 60.9592C68.9361 61.2143 69.3551 61.3345 69.8433 61.32H70.0182ZM69.9745 61.32C70.1785 61.32 70.3789 61.3746 70.5757 61.4839C70.7797 61.5859 70.9364 61.739 71.0457 61.943C71.155 62.1398 71.2097 62.3438 71.2097 62.5551C71.2097 62.7738 71.155 62.9814 71.0457 63.1782C70.9437 63.3749 70.7907 63.528 70.5866 63.6373C70.3899 63.7466 70.1858 63.8012 69.9745 63.8012C69.7559 63.8012 69.5482 63.7466 69.3514 63.6373C69.1547 63.528 69.0017 63.3749 68.8923 63.1782C68.783 62.9814 68.7284 62.7738 68.7284 62.5551C68.7284 62.3438 68.783 62.1398 68.8923 61.943C69.0089 61.739 69.1656 61.5859 69.3624 61.4839C69.5591 61.3746 69.7632 61.32 69.9745 61.32Z" fill="#BA400B"/>
<path d="M75.7978 61.3309C75.8488 61.3236 75.9034 61.32 75.9617 61.32C76.1731 61.32 76.3771 61.3746 76.5739 61.4839C76.7706 61.5859 76.9236 61.739 77.033 61.943C77.1495 62.1398 77.2078 62.3438 77.2078 62.5551C77.2078 62.7738 77.1532 62.9814 77.0439 63.1782C76.9346 63.3749 76.7815 63.528 76.5848 63.6373C76.388 63.7466 76.1804 63.8012 75.9617 63.8012H70.1028V63.7903C70.0518 63.7976 70.0008 63.8012 69.9498 63.8012C69.7385 63.8012 69.5344 63.7466 69.3377 63.6373C69.1409 63.528 68.9879 63.3749 68.8786 63.1782C68.7693 62.9814 68.7146 62.7738 68.7146 62.5551C68.7146 62.3438 68.7693 62.1398 68.8786 61.943C68.9879 61.739 69.1409 61.5859 69.3377 61.4839C69.5344 61.3746 69.7385 61.32 69.9498 61.32C70.0081 61.32 70.0628 61.3236 70.1138 61.3309H75.7978Z" fill="#BA400B"/>
<path d="M81.7147 61.3309C81.7657 61.3236 81.8204 61.32 81.8787 61.32C82.09 61.32 82.294 61.3746 82.4908 61.4839C82.6875 61.5859 82.8406 61.739 82.9499 61.943C83.0665 62.1398 83.1248 62.3438 83.1248 62.5551C83.1248 62.7738 83.0701 62.9814 82.9608 63.1782C82.8515 63.3749 82.6985 63.528 82.5017 63.6373C82.305 63.7466 82.0973 63.8012 81.8787 63.8012H76.0198V63.7903C75.9688 63.7976 75.9177 63.8012 75.8667 63.8012C75.6554 63.8012 75.4514 63.7466 75.2546 63.6373C75.0579 63.528 74.9048 63.3749 74.7955 63.1782C74.6862 62.9814 74.6316 62.7738 74.6316 62.5551C74.6316 62.3438 74.6862 62.1398 74.7955 61.943C74.9048 61.739 75.0579 61.5859 75.2546 61.4839C75.4514 61.3746 75.6554 61.32 75.8667 61.32C75.925 61.32 75.9797 61.3236 76.0307 61.3309H81.7147Z" fill="#BA400B"/>
<path d="M87.3256 59.418C86.8446 59.3524 86.4365 59.4107 86.1013 59.5929C85.7734 59.7751 85.5621 59.9791 85.4673 60.205C85.3726 60.4528 85.3835 60.7443 85.5001 61.0795C85.624 61.4074 85.8244 61.688 86.1013 61.9212C86.4438 62.1908 86.8264 62.3256 87.249 62.3256C87.679 62.3183 88.047 62.1507 88.353 61.8228C88.6883 61.4293 88.7939 60.9738 88.67 60.4564C88.5534 59.939 88.1053 59.5929 87.3256 59.418ZM81.8602 61.32H82.0351C82.3921 61.2981 82.6545 61.1633 82.8221 60.9155C82.997 60.6678 83.1427 60.3617 83.2593 59.9973C83.3249 59.8297 83.3941 59.6621 83.467 59.4945C83.5763 59.152 83.733 58.8314 83.937 58.5326C84.2868 58.0225 84.735 57.6181 85.2815 57.3193C85.828 57.0205 86.4402 56.8675 87.1179 56.8602C88.0288 56.8748 88.7793 57.0898 89.3696 57.5051C89.9672 57.9205 90.4007 58.4488 90.6704 59.0901C90.9473 59.7314 91.0602 60.4018 91.0092 61.1013C90.8781 62.3329 90.4044 63.2328 89.5882 63.8012C88.7793 64.3769 87.8684 64.632 86.8555 64.5664C85.8499 64.5008 84.9864 64.1292 84.2649 63.4515C84.0755 63.2547 83.9115 63.0434 83.7731 62.8175C83.4014 63.1964 82.9678 63.4733 82.4723 63.6482C82.2755 63.7502 82.0715 63.8012 81.8602 63.8012C81.6488 63.8012 81.4448 63.7466 81.248 63.6373C81.0513 63.528 80.8983 63.3749 80.7889 63.1782C80.6796 62.9814 80.625 62.7738 80.625 62.5551C80.625 62.3438 80.6796 62.1398 80.7889 61.943C80.8983 61.739 81.0513 61.5859 81.248 61.4839C81.4448 61.3746 81.6488 61.32 81.8602 61.32Z" fill="#BA400B"/>
<path d="M10.7055 80.4209C10.8353 80.4209 10.9606 80.4533 11.0811 80.5183C11.2064 80.5878 11.3038 80.6875 11.3733 80.8174C11.4475 80.9426 11.4846 81.0725 11.4846 81.207C11.4846 81.3461 11.4498 81.4783 11.3803 81.6035C11.3107 81.7287 11.2133 81.8261 11.0881 81.8957C10.9675 81.9606 10.84 81.9954 10.7055 82H10.3577C10.7287 82.64 10.8261 83.1872 10.6498 83.6417C10.4736 84.0962 10.1351 84.4626 9.63418 84.7409C9.13332 85.0191 8.57911 85.2139 7.97158 85.3252C7.27592 85.4643 6.57563 85.4783 5.87071 85.367C5.11476 85.2464 4.43998 84.9635 3.84636 84.5183C3.25274 84.073 2.82839 83.4655 2.57332 82.6957C2.37389 82.0974 2.35303 81.469 2.51071 80.8104C2.66839 80.2586 2.94665 79.7809 3.34549 79.3774C3.74897 78.9693 4.19418 78.647 4.68114 78.4104C5.17274 78.1693 5.63187 78.0209 6.05853 77.9652C6.52694 77.9142 6.82607 77.9583 6.95592 78.0974C7.09042 78.2319 6.93505 78.4267 6.48984 78.6817C6.36926 78.7467 6.251 78.8093 6.13505 78.8696C5.79187 79.0365 5.46491 79.2267 5.15418 79.44C4.8481 79.6487 4.57216 79.9386 4.32636 80.3096C3.99708 80.8522 3.86955 81.3786 3.94375 81.8887C4.01795 82.3988 4.24056 82.8348 4.61158 83.1965C5.12636 83.6742 5.74549 83.9501 6.46897 84.0243C7.19708 84.1032 7.87882 84.0128 8.51418 83.753C9.07998 83.5119 9.41853 83.2522 9.52984 82.9739C9.64578 82.6957 9.55998 82.4591 9.27245 82.2643C8.98491 82.0742 8.51882 81.9861 7.87419 82C7.74897 82.0093 7.61679 82.0255 7.47766 82.0487C7.24114 82.0951 7.01853 82.1067 6.80984 82.0835C6.51303 82.0232 6.32752 81.8609 6.25332 81.5965C6.17911 81.3322 6.2765 81.0748 6.54549 80.8243C6.81911 80.5739 7.31998 80.4417 8.0481 80.4278L10.7055 80.4209ZM15.4405 80.4209C15.575 80.4209 15.7049 80.4557 15.8301 80.5252C15.9553 80.5901 16.0527 80.6875 16.1223 80.8174C16.1965 80.9426 16.2336 81.0725 16.2336 81.207C16.2336 81.3461 16.1988 81.4783 16.1292 81.6035C16.0596 81.7287 15.9623 81.8261 15.837 81.8957C15.7118 81.9652 15.5796 82 15.4405 82C15.2782 82.0046 15.1182 82.0046 14.9605 82C14.4689 82.0093 13.9843 81.9212 13.5066 81.7357C13.0289 81.5455 12.6625 81.2325 12.4075 80.7965C12.2637 81.1583 12.0388 81.4481 11.7327 81.6661C11.4498 81.8655 11.1391 81.9745 10.8005 81.993C10.7773 81.9977 10.7518 82 10.724 82H10.7031C10.5779 81.9954 10.455 81.9606 10.3344 81.8957C10.2092 81.8261 10.1118 81.7287 10.0423 81.6035C9.97269 81.4783 9.93791 81.3461 9.93791 81.207C9.93791 81.0725 9.97269 80.9426 10.0423 80.8174C10.1118 80.6875 10.2115 80.5878 10.3414 80.5183C10.462 80.458 10.5825 80.4255 10.7031 80.4209H10.7449C11.0695 80.4209 11.313 80.3722 11.4753 80.2748C11.6376 80.1774 11.7536 80.0568 11.8231 79.913C11.8881 79.7786 11.9252 79.6278 11.9344 79.4609C11.9483 79.2939 11.9507 79.1154 11.9414 78.9252C11.9275 78.6609 11.9367 78.3919 11.9692 78.1183C12.0156 77.8539 12.1292 77.673 12.3101 77.5757C12.4956 77.4783 12.6788 77.4991 12.8596 77.6383C13.0405 77.7774 13.1541 78.0672 13.2005 78.5078C13.2098 78.6006 13.2237 78.691 13.2423 78.7791C13.2608 78.9043 13.277 79.0249 13.291 79.1409C13.3373 79.3588 13.437 79.5652 13.5901 79.76C13.7478 79.9501 13.9727 80.1078 14.2649 80.233C14.5617 80.3583 14.9536 80.4209 15.4405 80.4209ZM13.1518 75.2174C13.6712 75.2684 14.0515 75.3612 14.2927 75.4957C14.5385 75.6301 14.5941 75.767 14.4596 75.9061C14.3298 76.0452 13.9588 76.1496 13.3466 76.2191C13.0266 76.2609 12.6278 76.3072 12.1501 76.3583C11.677 76.4093 11.2504 76.4348 10.8701 76.4348C10.833 76.4348 10.7936 76.4348 10.7518 76.4348C10.5431 76.4394 10.3762 76.4186 10.251 76.3722C10.1211 76.3258 10.0562 76.1959 10.0562 75.9826C10.0794 75.7183 10.2185 75.5281 10.4736 75.4122C10.724 75.2962 11.0208 75.229 11.364 75.2104C11.7072 75.1872 12.0202 75.178 12.3031 75.1826C12.3912 75.1872 12.4701 75.1896 12.5396 75.1896C12.5675 75.1896 12.5976 75.1896 12.6301 75.1896C12.8017 75.1849 12.8828 75.1849 12.8736 75.1896C12.8643 75.1896 12.957 75.1988 13.1518 75.2174ZM17.3645 73.3878C17.4294 73.3693 17.7146 73.2186 18.2201 72.9357C18.7303 72.6481 19.3169 72.3142 19.9801 71.9339C20.6433 71.549 21.2462 71.1988 21.7888 70.8835C22.3175 70.5774 22.6537 70.3849 22.7975 70.3061C23.2705 70.0742 23.5674 70.0023 23.6879 70.0904C23.8132 70.1786 23.8085 70.3501 23.674 70.6052C23.5395 70.8557 23.3192 71.1107 23.0132 71.3704C22.5865 71.7322 21.9465 72.2168 21.0932 72.8243C20.2445 73.4319 19.3842 73.9745 18.5123 74.4522C17.6404 74.9299 16.9633 75.1548 16.481 75.127C16.0358 75.0481 15.9407 74.8093 16.1958 74.4104C16.3905 74.0951 16.7801 73.7542 17.3645 73.3878ZM15.4375 80.4209H15.5558C16.0195 80.4116 16.3766 80.3328 16.6271 80.1843C16.8775 80.0359 17.0236 79.8435 17.0653 79.607C17.1117 79.2823 17.0561 78.8858 16.8984 78.4174C16.7453 77.949 16.5714 77.4852 16.3766 77.0261C16.2839 76.8035 16.1981 76.5948 16.1192 76.4C16.0682 76.0707 16.1332 75.8157 16.314 75.6348C16.4949 75.4539 16.7476 75.4075 17.0723 75.4957C17.332 75.5884 17.5129 75.7762 17.6149 76.0591C17.6984 76.2771 17.7911 76.502 17.8932 76.7339C18.0694 77.142 18.2271 77.5548 18.3662 77.9722C18.5053 78.3896 18.5818 78.793 18.5958 79.1826C18.5679 80.0359 18.2479 80.7223 17.6358 81.2417C17.0282 81.7612 16.2955 82.0139 15.4375 82C15.303 82 15.1732 81.9652 15.0479 81.8957C14.9227 81.8261 14.8253 81.7287 14.7558 81.6035C14.6862 81.4783 14.6514 81.3461 14.6514 81.207C14.6514 81.0725 14.6862 80.9426 14.7558 80.8174C14.8253 80.6875 14.9227 80.5901 15.0479 80.5252C15.1732 80.4557 15.303 80.4209 15.4375 80.4209ZM21.9998 78.6748C22.0971 79.2777 22.1064 79.8852 22.0276 80.4974C21.9534 81.1096 21.7656 81.673 21.4641 82.1878C21.1673 82.7026 20.7313 83.1154 20.1563 83.4261C19.9012 83.5606 19.6253 83.6626 19.3285 83.7322C19.0363 83.8064 18.7441 83.8226 18.4519 83.7809C18.336 83.767 18.2038 83.7275 18.0554 83.6626C17.9024 83.5977 17.8119 83.5026 17.7841 83.3774C17.7748 83.2661 17.8258 83.1664 17.9371 83.0783C18.0485 82.9948 18.176 82.9229 18.3198 82.8626C18.4589 82.807 18.5679 82.7699 18.6467 82.7513C19.1105 82.6122 19.4861 82.378 19.7737 82.0487C20.0658 81.7241 20.2908 81.3368 20.4485 80.887C20.5737 80.4788 20.6085 80.0614 20.5528 79.6348C20.5389 79.4678 20.5203 79.3009 20.4971 79.1339C20.4693 78.9345 20.4485 78.7328 20.4345 78.5287C20.4206 78.4128 20.4183 78.2875 20.4276 78.153C20.4415 78.0186 20.4809 77.9003 20.5458 77.7983C20.6108 77.7101 20.6942 77.6475 20.7963 77.6104C20.8983 77.5733 21.0027 77.5501 21.1093 77.5409C21.216 77.5316 21.3227 77.5362 21.4293 77.5548C21.5406 77.5733 21.6357 77.6243 21.7145 77.7078C21.798 77.8052 21.8583 77.9351 21.8954 78.0974C21.9325 78.2597 21.9603 78.4151 21.9789 78.5635C21.9835 78.6006 21.9905 78.6377 21.9998 78.6748ZM25.7761 80.4209V82H25.477C24.8601 82 24.3848 81.8887 24.0509 81.6661C23.717 81.4388 23.4781 81.1351 23.3343 80.7548C23.1906 80.3745 23.1048 79.9455 23.077 79.4678C23.0538 78.9901 23.0468 78.4939 23.0561 77.9791C23.0561 77.942 23.0561 77.9049 23.0561 77.8678L23.0839 74.96C23.1071 74.6168 23.237 74.3733 23.4735 74.2296C23.7146 74.0858 23.9512 74.0812 24.183 74.2157C24.4196 74.3501 24.5448 74.6655 24.5587 75.1617L24.503 79.28C24.5262 79.7252 24.6468 80.029 24.8648 80.1913C25.0874 80.3536 25.3541 80.4301 25.6648 80.4209H25.7761ZM25.7483 80.4209C25.8781 80.4209 26.0057 80.4557 26.1309 80.5252C26.2607 80.5901 26.3604 80.6875 26.43 80.8174C26.4996 80.9426 26.5343 81.0725 26.5343 81.207C26.5343 81.3461 26.4996 81.4783 26.43 81.6035C26.3651 81.7287 26.2677 81.8261 26.1378 81.8957C26.0126 81.9652 25.8828 82 25.7483 82C25.6091 82 25.477 81.9652 25.3517 81.8957C25.2265 81.8261 25.1291 81.7287 25.0596 81.6035C24.99 81.4783 24.9552 81.3461 24.9552 81.207C24.9552 81.0725 24.99 80.9426 25.0596 80.8174C25.1338 80.6875 25.2335 80.5901 25.3587 80.5252C25.4839 80.4557 25.6138 80.4209 25.7483 80.4209ZM29.2595 79.2104C28.9534 79.1687 28.6937 79.2058 28.4804 79.3217C28.2717 79.4377 28.1372 79.5675 28.0769 79.7113C28.0166 79.869 28.0236 80.0545 28.0978 80.2678C28.1766 80.4765 28.3041 80.6551 28.4804 80.8035C28.6984 80.9751 28.9418 81.0609 29.2108 81.0609C29.4844 81.0562 29.7186 80.9496 29.9134 80.7409C30.1268 80.4904 30.194 80.2006 30.1152 79.8713C30.041 79.542 29.7557 79.3217 29.2595 79.2104ZM25.7812 80.4209H25.8926C26.1198 80.407 26.2868 80.3212 26.3934 80.1635C26.5047 80.0058 26.5975 79.811 26.6717 79.5791C26.7134 79.4725 26.7575 79.3658 26.8039 79.2591C26.8734 79.0412 26.9731 78.8371 27.103 78.647C27.3256 78.3223 27.6108 78.0649 27.9586 77.8748C28.3065 77.6846 28.696 77.5872 29.1273 77.5826C29.707 77.5919 30.1847 77.7287 30.5604 77.993C30.9407 78.2574 31.2166 78.5936 31.3882 79.0017C31.5644 79.4099 31.6363 79.8365 31.6039 80.2817C31.5204 81.0655 31.2189 81.6383 30.6995 82C30.1847 82.3664 29.605 82.5287 28.9604 82.487C28.3204 82.4452 27.7708 82.2087 27.3117 81.7774C27.1911 81.6522 27.0868 81.5177 26.9986 81.3739C26.7621 81.6151 26.4862 81.7913 26.1708 81.9026C26.0456 81.9675 25.9157 82 25.7812 82C25.6468 82 25.5169 81.9652 25.3917 81.8957C25.2665 81.8261 25.1691 81.7287 25.0995 81.6035C25.0299 81.4783 24.9952 81.3461 24.9952 81.207C24.9952 81.0725 25.0299 80.9426 25.0995 80.8174C25.1691 80.6875 25.2665 80.5901 25.3917 80.5252C25.5169 80.4557 25.6468 80.4209 25.7812 80.4209ZM37.0118 82C36.5155 82.0046 36.1237 81.9049 35.8361 81.7009C35.5439 82.4197 35.0315 82.9809 34.2987 83.3843C34.0437 83.5188 33.7677 83.6209 33.4709 83.6904C33.1787 83.7646 32.8865 83.7832 32.5944 83.7461C32.4784 83.7322 32.3463 83.6904 32.1979 83.6209C32.0448 83.5559 31.9544 83.4609 31.9265 83.3357C31.9173 83.229 31.9683 83.1316 32.0796 83.0435C32.1909 82.96 32.3184 82.8881 32.4622 82.8278C32.6013 82.7722 32.7103 82.7328 32.7892 82.7096C33.2529 82.5704 33.6286 82.3362 33.9161 82.007C34.2083 81.6823 34.4332 81.2951 34.5909 80.8452C34.7161 80.4371 34.7509 80.0197 34.6952 79.593C34.6813 79.4261 34.6628 79.2591 34.6396 79.0922C34.6118 78.8928 34.5909 78.6933 34.577 78.4939C34.5677 78.378 34.5677 78.2528 34.577 78.1183C34.5863 77.9791 34.6234 77.8586 34.6883 77.7565C34.7532 77.6684 34.8367 77.6058 34.9387 77.5687C35.0408 77.5316 35.1451 77.5107 35.2518 77.5061C35.3631 77.4922 35.4721 77.4968 35.5787 77.52C35.6854 77.5386 35.7781 77.5872 35.857 77.6661C35.9405 77.7681 36.0008 77.9003 36.0379 78.0626C36.075 78.2203 36.1028 78.3733 36.1213 78.5217C36.1306 78.5635 36.1376 78.6029 36.1422 78.64C36.1747 78.8441 36.1979 79.0504 36.2118 79.2591V79.3009C36.2303 79.5188 36.2605 79.7113 36.3022 79.8783C36.3439 80.0452 36.4251 80.1774 36.5457 80.2748C36.6663 80.3722 36.8216 80.4209 37.0118 80.4209C37.1323 80.4255 37.2529 80.458 37.3735 80.5183C37.4987 80.5878 37.5961 80.6875 37.6657 80.8174C37.7399 80.9426 37.777 81.0725 37.777 81.207C37.777 81.3461 37.7422 81.4783 37.6726 81.6035C37.6031 81.7287 37.5057 81.8261 37.3805 81.8957C37.2599 81.9606 37.137 81.9954 37.0118 82ZM37.0017 80.4209C37.1362 80.4209 37.2661 80.4557 37.3913 80.5252C37.5165 80.5901 37.6139 80.6875 37.6835 80.8174C37.7577 80.9426 37.7948 81.0725 37.7948 81.207C37.7948 81.3461 37.76 81.4783 37.6904 81.6035C37.6208 81.7287 37.5235 81.8261 37.3982 81.8957C37.273 81.9652 37.1408 82 37.0017 82C36.8672 82 36.7374 81.9652 36.6121 81.8957C36.4823 81.8261 36.3849 81.7287 36.32 81.6035C36.2504 81.4783 36.2156 81.3461 36.2156 81.207C36.2156 81.0725 36.2504 80.9426 36.32 80.8174C36.3895 80.6875 36.4869 80.5901 36.6121 80.5252C36.7374 80.4557 36.8672 80.4209 37.0017 80.4209ZM37.0087 82V80.4209H38.08C38.5669 80.3791 38.9055 80.1565 39.0956 79.753C39.2904 79.3449 39.3298 78.9275 39.2139 78.5009C39.0748 78.0046 39.0539 77.6661 39.1513 77.4852C39.2487 77.3043 39.3994 77.251 39.6035 77.3252C39.8121 77.3994 40.0092 77.571 40.1948 77.84C40.3849 78.1043 40.5032 78.4383 40.5495 78.8417C40.6006 79.3612 40.5426 79.8528 40.3756 80.3165C40.2087 80.7757 39.9281 81.1583 39.5339 81.4643C39.1536 81.7612 38.6574 81.9397 38.0452 82C37.3727 82 37.0272 82 37.0087 82ZM37.5374 84.9357C37.5188 84.4394 37.6371 83.9965 37.8921 83.607C38.1472 83.222 38.4742 82.9345 38.873 82.7443C39.2765 82.5542 39.6892 82.5055 40.1113 82.5983C40.5658 82.7235 40.8927 82.967 41.0921 83.3287C41.2962 83.6951 41.2869 84.1009 41.0643 84.5461C40.8 84.9867 40.4591 85.2812 40.0417 85.4296C39.6243 85.5826 39.2301 85.6406 38.8591 85.6035C38.4881 85.571 38.2377 85.5038 38.1078 85.4017C37.8574 85.1884 37.8063 85.04 37.9548 84.9565C38.1032 84.873 38.3466 84.8081 38.6852 84.7617C39.0469 84.7107 39.3878 84.6203 39.7078 84.4904C40.0556 84.3142 40.2179 84.1194 40.1948 83.9061C40.1716 83.6974 40.0232 83.549 39.7495 83.4609C39.4063 83.3728 39.084 83.3983 38.7826 83.5374C38.4811 83.6812 38.2214 83.8829 38.0035 84.1426C37.7855 84.4023 37.6301 84.6667 37.5374 84.9357ZM43.7127 80.8661C44.0374 80.8429 44.2391 80.7154 44.3179 80.4835C44.3968 80.2516 44.3574 80.0267 44.1997 79.8087C44.0466 79.5861 43.7823 79.4771 43.4066 79.4817C43.2165 79.4957 43.0588 79.5722 42.9336 79.7113C42.8084 79.8504 42.7574 80.0313 42.7805 80.2539C42.813 80.4255 42.9197 80.5716 43.1005 80.6922C43.2861 80.8081 43.4901 80.8661 43.7127 80.8661ZM45.9527 80.4209C46.0826 80.4209 46.2101 80.4533 46.3353 80.5183C46.4605 80.5878 46.5579 80.6875 46.6275 80.8174C46.7017 80.9426 46.7388 81.0725 46.7388 81.207C46.7388 81.3461 46.704 81.4783 46.6345 81.6035C46.5649 81.7287 46.4675 81.8261 46.3423 81.8957C46.2171 81.9652 46.0872 82 45.9527 82H45.1179C44.8397 82.807 44.3017 83.433 43.504 83.8783C43.2489 84.0174 42.973 84.1217 42.6762 84.1913C42.3794 84.2609 42.0872 84.2771 41.7997 84.24C41.6837 84.2261 41.5492 84.1867 41.3962 84.1217C41.2478 84.0568 41.1574 83.9594 41.1249 83.8296C41.1203 83.7229 41.1736 83.6255 41.2849 83.5374C41.3962 83.4539 41.5214 83.382 41.6605 83.3217C41.7997 83.2661 41.911 83.2267 41.9945 83.2035C42.6762 82.9901 43.1771 82.5843 43.4971 81.9861C43.0518 81.9814 42.6437 81.8539 42.2727 81.6035C41.9017 81.353 41.6536 80.9959 41.5284 80.5322C41.4403 80.1797 41.4588 79.8249 41.584 79.4678C41.7092 79.1061 41.9249 78.7977 42.231 78.5426C42.5371 78.2829 42.9197 78.1322 43.3788 78.0904C44.0652 78.0533 44.5939 78.2528 44.9649 78.6887C45.2663 79.0736 45.4194 79.5072 45.424 79.9896C45.4287 80.1287 45.4287 80.2701 45.424 80.4139L45.9527 80.4209ZM45.9531 80.4209C46.0876 80.4209 46.2175 80.4557 46.3427 80.5252C46.4679 80.5901 46.5653 80.6875 46.6349 80.8174C46.7091 80.9426 46.7462 81.0725 46.7462 81.207C46.7462 81.3461 46.7114 81.4783 46.6418 81.6035C46.5723 81.7287 46.4749 81.8261 46.3496 81.8957C46.2244 81.9652 46.0923 82 45.9531 82C45.8186 82 45.6888 81.9652 45.5636 81.8957C45.4383 81.8261 45.341 81.7287 45.2714 81.6035C45.2018 81.4783 45.167 81.3461 45.167 81.207C45.167 81.0725 45.2018 80.9426 45.2714 80.8174C45.341 80.6875 45.4383 80.5901 45.5636 80.5252C45.6888 80.4557 45.8186 80.4209 45.9531 80.4209ZM52.6036 81.5548C52.2836 81.8655 51.8963 82.0139 51.4418 82C50.9873 81.9907 50.5769 81.8099 50.2105 81.4574C50.0204 81.731 49.7792 81.9026 49.487 81.9722C49.1949 82.0417 48.905 82.0162 48.6175 81.8957C48.3346 81.7704 48.1096 81.5617 47.9427 81.2696C47.5995 81.6128 47.2586 81.8284 46.9201 81.9165C46.5815 82 46.2592 82.0278 45.9531 82V80.4209C46.3195 80.4255 46.5815 80.3745 46.7392 80.2678C46.9015 80.1565 47.0059 80.0151 47.0523 79.8435C47.1033 79.6672 47.1357 79.4817 47.1496 79.287C47.1589 79.1014 47.1844 78.9299 47.2262 78.7722C47.2725 78.6099 47.3676 78.4823 47.5114 78.3896C47.7062 78.2783 47.9056 78.2504 48.1096 78.3061C48.3183 78.3617 48.4644 78.4986 48.5479 78.7165C48.6082 78.9113 48.6383 79.1316 48.6383 79.3774C48.6383 79.5629 48.6546 79.7484 48.687 79.9339C48.7659 80.3235 48.8818 80.4835 49.0349 80.4139C49.1879 80.3443 49.327 80.1588 49.4523 79.8574C49.5821 79.5513 49.654 79.2475 49.6679 78.9461C49.6911 78.6261 49.8024 78.4035 50.0018 78.2783C50.2059 78.1484 50.4169 78.1507 50.6349 78.2852C50.8528 78.4151 50.9896 78.7142 51.0453 79.1826L51.0592 79.6765C51.0731 80.1913 51.1496 80.4348 51.2888 80.407C51.4279 80.3745 51.5856 80.1403 51.7618 79.7043C51.8778 79.4168 51.9311 79.1061 51.9218 78.7722C51.9265 78.3501 52.0238 78.0464 52.214 77.8609C52.4088 77.6754 52.6244 77.6174 52.861 77.687C53.1021 77.7565 53.2899 77.9606 53.4244 78.2991C53.5543 78.6701 53.5937 79.062 53.5427 79.4748C53.4963 79.8875 53.392 80.2725 53.2296 80.6296C53.0302 81.033 52.8215 81.3414 52.6036 81.5548ZM55.4241 80.1078C55.3314 79.5142 55.438 78.9925 55.7441 78.5426C56.0502 78.0881 56.4653 77.7287 56.9893 77.4643C57.518 77.2 58.0699 77.0586 58.645 77.04C59.2201 77.0168 59.7279 77.1467 60.1685 77.4296C60.6091 77.7078 60.8966 78.1623 61.0311 78.793C61.1609 79.6464 61.0056 80.3513 60.565 80.9078C60.1244 81.4597 59.5563 81.8029 58.8607 81.9374C58.4154 82.0162 57.9795 82.0232 57.5528 81.9583C57.1308 81.8887 56.7969 81.7681 56.5511 81.5965C56.3238 81.4296 56.0966 81.2139 55.8693 80.9496C55.6421 80.6852 55.4937 80.4046 55.4241 80.1078ZM59.5424 79.8017C59.7372 79.4957 59.7627 79.1965 59.6189 78.9043C59.4798 78.6122 59.2502 78.3872 58.9302 78.2296C58.6149 78.0672 58.2833 78.0371 57.9354 78.1391C57.5922 78.2365 57.3117 78.5241 57.0937 79.0017C56.9221 79.433 56.9128 79.767 57.0659 80.0035C57.2189 80.2354 57.4554 80.3791 57.7754 80.4348C58.0954 80.4904 58.4224 80.4649 58.7563 80.3583C59.0902 80.247 59.3522 80.0614 59.5424 79.8017ZM64.5573 80.4209V82H64.2582C63.6414 82 63.166 81.8887 62.8321 81.6661C62.4982 81.4388 62.2594 81.1351 62.1156 80.7548C61.9718 80.3745 61.886 79.9455 61.8582 79.4678C61.835 78.9901 61.8281 78.4939 61.8373 77.9791C61.8373 77.942 61.8373 77.9049 61.8373 77.8678L61.8652 74.96C61.8884 74.6168 62.0182 74.3733 62.2547 74.2296C62.4959 74.0858 62.7324 74.0812 62.9643 74.2157C63.2008 74.3501 63.326 74.6655 63.3399 75.1617L63.2843 79.28C63.3075 79.7252 63.4281 80.029 63.646 80.1913C63.8686 80.3536 64.1353 80.4301 64.446 80.4209H64.5573ZM64.5295 80.4209C64.6594 80.4209 64.7869 80.4557 64.9121 80.5252C65.042 80.5901 65.1417 80.6875 65.2113 80.8174C65.2808 80.9426 65.3156 81.0725 65.3156 81.207C65.3156 81.3461 65.2808 81.4783 65.2113 81.6035C65.1463 81.7287 65.0489 81.8261 64.9191 81.8957C64.7939 81.9652 64.664 82 64.5295 82C64.3904 82 64.2582 81.9652 64.133 81.8957C64.0078 81.8261 63.9104 81.7287 63.8408 81.6035C63.7713 81.4783 63.7365 81.3461 63.7365 81.207C63.7365 81.0725 63.7713 80.9426 63.8408 80.8174C63.915 80.6875 64.0147 80.5901 64.1399 80.5252C64.2652 80.4557 64.395 80.4209 64.5295 80.4209ZM66.4895 73.3878C66.559 73.3693 66.8466 73.2186 67.3521 72.9357C67.8576 72.6481 68.4419 72.3142 69.1051 71.9339C69.7683 71.549 70.3712 71.1988 70.9138 70.8835C71.4425 70.5774 71.7787 70.3826 71.9225 70.2991C72.3955 70.0719 72.6924 70.0023 72.8129 70.0904C72.9382 70.1786 72.9335 70.3501 72.799 70.6052C72.6645 70.8557 72.4466 71.1107 72.1451 71.3704C71.7184 71.7322 71.0784 72.2168 70.2251 72.8243C69.3718 73.4272 68.5092 73.9675 67.6373 74.4452C66.77 74.9229 66.0953 75.1501 65.6129 75.127C65.1677 75.0481 65.0703 74.807 65.3208 74.4035C65.5202 74.0928 65.9097 73.7542 66.4895 73.3878ZM64.5625 82C64.428 82 64.2982 81.9652 64.1729 81.8957C64.0477 81.8261 63.9503 81.7287 63.8808 81.6035C63.8112 81.4783 63.7764 81.3461 63.7764 81.207C63.7764 81.0725 63.8112 80.9426 63.8808 80.8174C63.9503 80.6875 64.0477 80.5901 64.1729 80.5252C64.2982 80.4557 64.428 80.4209 64.5625 80.4209C64.595 80.4209 64.6344 80.4209 64.6808 80.4209C64.7318 80.4209 64.7735 80.4186 64.806 80.4139C65.228 80.3907 65.555 80.3072 65.7868 80.1635C66.0187 80.0151 66.1555 79.8272 66.1973 79.6C66.239 79.28 66.1834 78.8858 66.0303 78.4174C65.8773 77.949 65.7011 77.4852 65.5016 77.0261C65.4089 76.7988 65.3254 76.5878 65.2512 76.393C65.2002 76.0684 65.2628 75.8157 65.439 75.6348C65.6199 75.4493 65.8726 75.4006 66.1973 75.4887C66.457 75.5814 66.6379 75.7716 66.7399 76.0591C66.8234 76.2678 66.9092 76.4858 66.9973 76.713C67.1967 77.2139 67.3868 77.7148 67.5677 78.2157C67.7857 78.8417 68.0384 79.3635 68.326 79.7809C68.6182 80.1936 68.9613 80.407 69.3555 80.4209C69.4622 80.4301 69.5689 80.4626 69.6755 80.5183C69.8008 80.5878 69.8982 80.6875 69.9677 80.8174C70.0419 80.9426 70.079 81.0725 70.079 81.207C70.079 81.3461 70.0442 81.4783 69.9747 81.6035C69.9051 81.7287 69.8077 81.8261 69.6825 81.8957C69.5758 81.9559 69.4668 81.9907 69.3555 82H69.0216C68.6831 82.0046 68.3237 81.9328 67.9434 81.7843C67.5631 81.6313 67.2454 81.3786 66.9903 81.0261C66.355 81.6846 65.5457 82.0093 64.5625 82ZM68.0895 71.0365C68.1312 71.0133 68.2031 70.9739 68.3051 70.9183C68.4813 70.8209 68.7016 70.7026 68.966 70.5635C69.2303 70.4243 69.49 70.2968 69.7451 70.1809C70.0002 70.0603 70.1973 69.9861 70.3364 69.9583C70.4802 69.9258 70.5173 69.9699 70.4477 70.0904C70.3828 70.211 70.1625 70.4406 69.7868 70.7791C69.5596 70.9786 69.2141 71.2313 68.7503 71.5374C68.2866 71.8388 67.8321 72.0939 67.3868 72.3026C66.9416 72.5113 66.6309 72.5716 66.4547 72.4835C66.3897 72.4371 66.3364 72.3768 66.2947 72.3026C66.2576 72.2238 66.2437 72.1426 66.2529 72.0591C66.2715 71.9757 66.3271 71.9061 66.4199 71.8504C66.5173 71.7948 66.617 71.7461 66.719 71.7043C66.77 71.6858 66.8141 71.6672 66.8512 71.6487L68.0895 71.0365ZM69.3298 80.4209C69.4643 80.4209 69.5942 80.4557 69.7194 80.5252C69.8446 80.5901 69.942 80.6875 70.0116 80.8174C70.0858 80.9426 70.1229 81.0725 70.1229 81.207C70.1229 81.3461 70.0881 81.4783 70.0185 81.6035C69.949 81.7287 69.8516 81.8261 69.7264 81.8957C69.6011 81.9652 69.469 82 69.3298 82C69.1953 82 69.0655 81.9652 68.9403 81.8957C68.8151 81.8261 68.7177 81.7287 68.6481 81.6035C68.5785 81.4783 68.5437 81.3461 68.5437 81.207C68.5437 81.0725 68.5785 80.9426 68.6481 80.8174C68.7177 80.6875 68.8151 80.5901 68.9403 80.5252C69.0655 80.4557 69.1953 80.4209 69.3298 80.4209ZM75.9803 81.5548C75.6603 81.8655 75.273 82.0139 74.8185 82C74.364 81.9907 73.9536 81.8099 73.5872 81.4574C73.3971 81.731 73.1559 81.9026 72.8637 81.9722C72.5716 82.0417 72.2817 82.0162 71.9942 81.8957C71.7113 81.7704 71.4864 81.5617 71.3194 81.2696C70.9762 81.6128 70.6353 81.8284 70.2968 81.9165C69.9582 82 69.6359 82.0278 69.3298 82V80.4209C69.6962 80.4255 69.9582 80.3745 70.1159 80.2678C70.2782 80.1565 70.3826 80.0151 70.429 79.8435C70.48 79.6672 70.5124 79.4817 70.5264 79.287C70.5356 79.1014 70.5611 78.9299 70.6029 78.7722C70.6493 78.6099 70.7443 78.4823 70.8881 78.3896C71.0829 78.2783 71.2823 78.2504 71.4864 78.3061C71.6951 78.3617 71.8411 78.4986 71.9246 78.7165C71.9849 78.9113 72.0151 79.1316 72.0151 79.3774C72.0151 79.5629 72.0313 79.7484 72.0638 79.9339C72.1426 80.3235 72.2585 80.4835 72.4116 80.4139C72.5646 80.3443 72.7038 80.1588 72.829 79.8574C72.9588 79.5513 73.0307 79.2475 73.0446 78.9461C73.0678 78.6261 73.1791 78.4035 73.3785 78.2783C73.5826 78.1484 73.7936 78.1507 74.0116 78.2852C74.2295 78.4151 74.3664 78.7142 74.422 79.1826L74.4359 79.6765C74.4498 80.1913 74.5264 80.4348 74.6655 80.407C74.8046 80.3745 74.9623 80.1403 75.1385 79.7043C75.2545 79.4168 75.3078 79.1061 75.2985 78.7722C75.3032 78.3501 75.4006 78.0464 75.5907 77.8609C75.7855 77.6754 76.0011 77.6174 76.2377 77.687C76.4788 77.7565 76.6666 77.9606 76.8011 78.2991C76.931 78.6701 76.9704 79.062 76.9194 79.4748C76.873 79.8875 76.7687 80.2725 76.6064 80.6296C76.4069 81.033 76.1982 81.3414 75.9803 81.5548ZM70.9994 76.0174C70.9809 75.5212 71.0991 75.0806 71.3542 74.6957C71.6093 74.3061 71.9362 74.0162 72.3351 73.8261C72.7385 73.6359 73.1513 73.5872 73.5733 73.68C74.0278 73.8052 74.3548 74.051 74.5542 74.4174C74.7582 74.7791 74.749 75.1826 74.5264 75.6278C74.262 76.0684 73.9211 76.3652 73.5038 76.5183C73.0864 76.6667 72.6922 76.7246 72.3211 76.6922C71.9501 76.6551 71.6997 76.5855 71.5698 76.4835C71.3194 76.2701 71.2684 76.1217 71.4168 76.0383C71.5652 75.9548 71.8087 75.8899 72.1472 75.8435C72.509 75.7925 72.8498 75.702 73.1698 75.5722C73.5177 75.3959 73.68 75.2035 73.6568 74.9948C73.6336 74.7814 73.4852 74.6307 73.2116 74.5426C72.8684 74.4545 72.5461 74.4823 72.2446 74.6261C71.9432 74.7652 71.6835 74.9646 71.4655 75.2243C71.2475 75.4841 71.0922 75.7484 70.9994 76.0174ZM79.6415 80.4139C79.9662 80.3907 80.1656 80.2632 80.2398 80.0313C80.3187 79.7994 80.2815 79.5745 80.1285 79.3565C79.9755 79.1339 79.7111 79.0249 79.3355 79.0296C79.1453 79.0435 78.9853 79.12 78.8555 79.2591C78.7302 79.3983 78.6815 79.5791 78.7094 79.8017C78.7418 79.9733 78.8485 80.1194 79.0294 80.24C79.2149 80.3559 79.4189 80.4139 79.6415 80.4139ZM79.4189 81.5339C78.9737 81.5293 78.5656 81.4017 78.1946 81.1513C77.8282 80.9009 77.5801 80.5438 77.4502 80.08C77.3668 79.7275 77.3876 79.3728 77.5129 79.0157C77.6381 78.6539 77.8514 78.3455 78.1529 78.0904C78.4589 77.8307 78.8415 77.68 79.3007 77.6383C79.9917 77.6012 80.5204 77.8006 80.8868 78.2365C81.1929 78.6214 81.3459 79.0551 81.3459 79.5374C81.3784 80.3258 81.2462 81.0725 80.9494 81.7774C80.6572 82.4823 80.1517 83.0319 79.4329 83.4261C79.1731 83.5606 78.8949 83.6626 78.5981 83.7322C78.3059 83.8064 78.0137 83.8249 77.7215 83.7878C77.6102 83.7739 77.4781 83.7345 77.325 83.6696C77.172 83.6046 77.0815 83.5072 77.0537 83.3774C77.0491 83.2707 77.1024 83.1733 77.2137 83.0852C77.325 83.0017 77.4502 82.9299 77.5894 82.8696C77.7285 82.8139 77.8375 82.7745 77.9163 82.7513C78.6027 82.538 79.1036 82.1322 79.4189 81.5339ZM85.5274 82C85.0312 82.0046 84.6393 81.9049 84.3517 81.7009C84.0596 82.4197 83.5471 82.9809 82.8143 83.3843C82.5593 83.5188 82.2833 83.6209 81.9865 83.6904C81.6943 83.7646 81.4022 83.7832 81.11 83.7461C80.9941 83.7322 80.8619 83.6904 80.7135 83.6209C80.5604 83.5559 80.47 83.4609 80.4422 83.3357C80.4329 83.229 80.4839 83.1316 80.5952 83.0435C80.7065 82.96 80.8341 82.8881 80.9778 82.8278C81.117 82.7722 81.2259 82.7328 81.3048 82.7096C81.7686 82.5704 82.1442 82.3362 82.4317 82.007C82.7239 81.6823 82.9488 81.2951 83.1065 80.8452C83.2317 80.4371 83.2665 80.0197 83.2109 79.593C83.197 79.4261 83.1784 79.2591 83.1552 79.0922C83.1274 78.8928 83.1065 78.6933 83.0926 78.4939C83.0833 78.378 83.0833 78.2528 83.0926 78.1183C83.1019 77.9791 83.139 77.8586 83.2039 77.7565C83.2688 77.6684 83.3523 77.6058 83.4543 77.5687C83.5564 77.5316 83.6607 77.5107 83.7674 77.5061C83.8787 77.4922 83.9877 77.4968 84.0943 77.52C84.201 77.5386 84.2938 77.5872 84.3726 77.6661C84.4561 77.7681 84.5164 77.9003 84.5535 78.0626C84.5906 78.2203 84.6184 78.3733 84.637 78.5217C84.6462 78.5635 84.6532 78.6029 84.6578 78.64C84.6903 78.8441 84.7135 79.0504 84.7274 79.2591V79.3009C84.7459 79.5188 84.7761 79.7113 84.8178 79.8783C84.8596 80.0452 84.9407 80.1774 85.0613 80.2748C85.1819 80.3722 85.3372 80.4209 85.5274 80.4209C85.648 80.4255 85.7686 80.458 85.8891 80.5183C86.0143 80.5878 86.1117 80.6875 86.1813 80.8174C86.2555 80.9426 86.2926 81.0725 86.2926 81.207C86.2926 81.3461 86.2578 81.4783 86.1883 81.6035C86.1187 81.7287 86.0213 81.8261 85.8961 81.8957C85.7755 81.9606 85.6526 81.9954 85.5274 82ZM88.1191 77.7009C87.864 77.687 87.653 77.7357 87.486 77.847C87.3237 77.9583 87.2333 78.0904 87.2147 78.2435C87.2101 78.3826 87.2727 78.5078 87.4026 78.6191C87.537 78.7258 87.7133 78.7861 87.9313 78.8C88.1446 78.8046 88.337 78.7583 88.5086 78.6609C88.6849 78.5588 88.7892 78.429 88.8217 78.2713C88.8402 78.1507 88.7939 78.0348 88.6826 77.9235C88.5759 77.8075 88.3881 77.7333 88.1191 77.7009ZM86.9434 80.4209C87.3376 80.4301 87.7202 80.3838 88.0912 80.2817C88.4669 80.1797 88.7591 79.9316 88.9678 79.5374C88.6617 79.8157 88.3278 79.9849 87.966 80.0452C87.6043 80.1055 87.2611 80.073 86.9365 79.9478C86.4217 79.7438 86.0808 79.4423 85.9139 79.0435C85.7469 78.6446 85.726 78.2296 85.8512 77.7983C85.9811 77.367 86.2292 76.9983 86.5956 76.6922C86.962 76.3861 87.4211 76.2214 87.973 76.1983C88.6084 76.1936 89.1672 76.4116 89.6495 76.8522C90.1365 77.2928 90.3892 77.949 90.4078 78.8209C90.4031 79.3449 90.2779 79.8504 90.0321 80.3374C89.791 80.8197 89.4269 81.2162 88.9399 81.527C88.453 81.8377 87.8455 81.9954 87.1173 82H85.4826C85.3481 82 85.2182 81.9652 85.093 81.8957C84.9678 81.8261 84.8704 81.7287 84.8008 81.6035C84.7313 81.4783 84.6965 81.3461 84.6965 81.207C84.6965 81.0725 84.7313 80.9426 84.8008 80.8174C84.8704 80.6875 84.9678 80.5901 85.093 80.5252C85.2182 80.4557 85.3481 80.4209 85.4826 80.4209H86.9434ZM87.326 73.0191C87.6692 72.9264 87.9846 72.9542 88.2721 73.1026C88.5597 73.2464 88.7452 73.4597 88.8286 73.7426C88.8982 74.0858 88.8333 74.371 88.6339 74.5983C88.4391 74.8255 88.2211 74.9693 87.9799 75.0296C87.5023 75.1223 87.1243 75.0342 86.846 74.7652C86.5724 74.4916 86.4588 74.1762 86.5052 73.8191C86.5562 73.462 86.8298 73.1954 87.326 73.0191Z" fill="#BA400B"/>
</svg>
